<?xml version="1.0" encoding="utf-8"?>
<!-- Generator: Adobe Illustrator 27.3.1, SVG Export Plug-In . SVG Version: 6.00 Build 0)  -->
<svg version="1.1" id="Ebene_1" xmlns="http://www.w3.org/2000/svg" xmlns:xlink="http://www.w3.org/1999/xlink" x="0px" y="0px"
	 width="212px" height="215px" viewBox="0 0 212 215" style="enable-background:new 0 0 212 215;" xml:space="preserve">
<style type="text/css">
	.st0{fill:#FFCC00;}
	.st1{fill:#FFFFFF;}
	.st2{display:none;opacity:0.5;}
</style>
<g>
	<path class="st0" d="M-38.7,215h-194.6c-4.8,0-8.7-3.9-8.7-8.7V8.7c0-4.8,3.9-8.7,8.7-8.7h194.6c4.8,0,8.7,3.9,8.7,8.7v197.6
		C-30,211.1-33.9,215-38.7,215z"/>
</g>
<g>
	<path class="st0" d="M203.3,215H8.7c-4.8,0-8.7-3.9-8.7-8.7V8.7C0,3.9,3.9,0,8.7,0h194.6c4.8,0,8.7,3.9,8.7,8.7v197.6
		C212,211.1,208.1,215,203.3,215z"/>
</g>
<path class="st1" d="M-113,74.7c-1.6-1.8-3.7-2.7-6.1-2.7h-16.4c-0.4,0-0.5-0.2-0.7-0.4c-0.2-0.4-0.2-0.7,0-1.1
	c1.4-3.2,2.3-6.1,3-9.6c0.5-2,0.7-3.2,0.7-4.5c0-5.2-3.9-7.1-5.9-7.5c-0.4,0-0.7,0-0.9,0.4c-0.2,0.2-11.4,16.4-15.9,20.9
	c-3.7,3.6-5.9,8-5.9,12.5v11.8c0,10.2,8.4,18.5,18.7,18.5h16.6c5.9,0,10.7-4.3,11.6-10.2l3-21.7C-110.7,78.8-111.4,76.5-113,74.7z"
	/>
<path class="st1" d="M130.8,80.5l-3-21.7c-0.7-5.9-5.7-10.2-11.6-10.2H99.6c-10.3,0-18.7,8.4-18.7,18.7v11.8c0,4.5,2.1,8.9,5.9,12.5
	c4.6,4.5,15.9,20.7,15.9,20.9c0.2,0.2,0.4,0.4,0.7,0.4h0.2c2-0.4,5.9-2.3,5.9-7.5c0-1.1-0.2-2.5-0.7-4.5c-0.7-3.6-1.6-6.4-3-9.6
	c-0.2-0.4-0.2-0.7,0-1.1c0.2-0.2,0.4-0.4,0.7-0.4h16.4c2.3,0,4.5-1.1,6.1-2.7C130.5,85.1,131.2,82.8,130.8,80.5z"/>
<g id="IcIXlz.tif" class="st2">
	
		<image style="display:inline;overflow:visible;" width="442" height="442" id="Layer_0" xlink:href="C7FBFEB05707BD13.png"  transform="matrix(0.5 0 0 0.5 -4 -2)">
	</image>
</g>
</svg>
