<?xml version="1.0" encoding="utf-8"?>
<!-- Generator: Adobe Illustrator 27.0.1, SVG Export Plug-In . SVG Version: 6.00 Build 0)  -->
<svg version="1.1" id="Ebene_1" xmlns="http://www.w3.org/2000/svg" xmlns:xlink="http://www.w3.org/1999/xlink" x="0px" y="0px"
	 width="104.4px" height="117px" viewBox="0 0 104.4 117" style="enable-background:new 0 0 104.4 117;" xml:space="preserve">
<style type="text/css">
	.st0{fill-rule:evenodd;clip-rule:evenodd;fill:#FFFFFF;}
	.st1{fill-rule:evenodd;clip-rule:evenodd;fill:#1D1D1B;}
	.st2{fill-rule:evenodd;clip-rule:evenodd;fill:#D3D3D3;}
	.st3{fill-rule:evenodd;clip-rule:evenodd;fill:#FFD23A;}
</style>
<g id="g10">
	<g>
		<g>
			<path class="st0" d="M5.3,95V72.7c-1.3-1.8-2.5-3.8-3.3-6v34.2c0,1.5,1.3,2.8,2.8,2.8h65.8c-0.1-0.5-0.2-1.1-0.3-1.6
				c-0.2-1.6-0.3-3.1-0.2-4.6H7.9C6.5,97.5,5.3,96.4,5.3,95L5.3,95z M84.1,103.8H100c1.5,0,2.8-1.3,2.8-2.8V77.5
				c-0.1,0-0.1,0-0.2,0.1c-1,0.3-2.1-0.2-3.1-0.9v18.4c0,1.4-1.1,2.5-2.5,2.5H85c0,0.5,0,1,0,1.6c-0.1,1.4-0.3,2.7-0.7,4
				C84.3,103.3,84.2,103.5,84.1,103.8"/>
			<path class="st1" d="M52.4,98.9c0.9,0,1.7,0.8,1.7,1.7s-0.8,1.7-1.7,1.7s-1.7-0.8-1.7-1.7S51.5,98.9,52.4,98.9"/>
			<path class="st0" d="M41.7,109.8H63v-4.6H41.7V109.8z"/>
			<path class="st2" d="M58.5,53.5h6.2c5,3,6.8,11.6,7.4,16.6c0.2,1.6,0.3,3.1,0.4,4.7H51.1V59.1c0.7-0.6,1.4-1.2,2.1-1.8
				C54.4,56.2,56.5,54.5,58.5,53.5L58.5,53.5z M89.8,66.2v8.6H81c0-3.4,0.6-8.6,4.2-10C86.5,64.2,88.2,65,89.8,66.2z M51.1,78.5
				h21.5c0,1.4-0.1,2.8-0.2,4.2c-0.2,2.9-0.8,5.6-1.4,8.2H51L51.1,78.5L51.1,78.5z M81.3,78.5h8.5v12.4h-5.7
				C83.2,86.9,81.8,82.7,81.3,78.5z M46.6,63.2V91H15V78.8c1.8,0.3,3.8,0.4,6,0.1c7.1-1,13.5-5.3,18.9-9.7
				C42.2,67.2,44.4,65.2,46.6,63.2"/>
			<path class="st3" d="M46.8,22.1c2.4-4.3,3.2-7,5.4-6.9c0.7,0,1.6,0.3,2.8,0.8c2.7,1.6,4.8,3.2,6.3,2.6c2.5-1,3-6.9,5-11.4
				c1.8-4.4,5.1-7.3,9.5-5.4c3,1.3,3.4,4.7,1.4,8.4c-2,3.6-4.1,6.1-7.6,9.6c-0.8,1.2-1.1,2.2-1.1,3.1c0,2.3,2.2,3.6,4.6,4.7
				c1.8,0.6,2.6,1.3,2.9,2.2c0.7,1.7-1.8,5.6-2.8,7.3L46.8,22.1L46.8,22.1z M96.8,71.3c2.7,3.2,4.8,5.8,5.9,4.1V43.7
				c0-1.5-1.3-2.8-2.8-2.8H70.7l1.2-2l-26-15.2L35.6,40.9H4.8c-1.5,0-2.8,1.3-2.8,2.8v17.4c3.2,13.4,10.6,17.3,18.8,16.2
				C38.7,74.8,53.3,49.2,62.6,51c6.8,1.3,10,9.7,11.2,18.9c0.6,4.4,0.6,9,0.4,13C73.7,89.8,71,95,72,102c0.1,0.7,0.2,1.3,0.4,1.8
				c1.8,7.1,7.6,6.3,10,0c0.1-0.3,0.3-0.7,0.4-1.1c2.5-8.5-3.3-17.1-3.4-27.5c0-5.4,1.2-10.4,5.2-12C88.8,61.5,93.3,67,96.8,71.3
				L96.8,71.3z M72.3,5.7c1.1,0,1.9,0.9,1.9,1.9s-0.9,1.9-1.9,1.9s-1.9-0.9-1.9-1.9S71.2,5.7,72.3,5.7"/>
		</g>
	</g>
</g>
</svg>
